<svg width="115" height="159" viewBox="0 0 115 159" fill="none" xmlns="http://www.w3.org/2000/svg">
<path fill-rule="evenodd" clip-rule="evenodd" d="M48.3145 77.2787C39.3257 65.9049 33.242 51.9661 34.2586 36.3473C37.1877 -8.65476 95.3002 1.24512 106.604 23.9583C117.908 46.6715 116.565 104.285 101.956 108.345C96.1294 109.964 83.7177 105.998 71.0855 97.7903L79.0145 158.259H32.1971L48.3145 77.2787Z" fill="#EAC7A6"/>
<path fill-rule="evenodd" clip-rule="evenodd" d="M97.9265 8.98081C96.8541 8.29085 94.6106 6.83553 93.4739 6.30808C93.205 6.18116 91.3217 4.7328 91.271 4.75115C89.8451 5.26971 85.7162 7.18427 85.3618 8.83864C85.3069 8.96401 85.253 9.08161 85.2004 9.18439C84.6154 10.3309 84.0785 11.506 83.5664 12.6953C82.4426 15.306 81.4726 18.0346 80.5461 20.7418C78.7415 26.0141 77.1738 31.4092 75.7324 36.8166C74.2649 42.3213 73.0194 47.8902 71.6252 53.4176C69.6189 61.3712 67.0511 69.1297 65.0587 77.0801C63.7864 82.1565 63.0787 87.2926 63.4128 92.5174C63.4161 92.5803 63.418 92.6422 63.4233 92.7061C63.4253 92.7322 63.4283 92.758 63.4305 92.7841C63.4873 93.5873 63.5683 94.3925 63.6763 95.2C63.7707 95.8905 63.8655 96.5836 63.9665 97.2765C65.7865 93.3644 67.176 89.0537 68.6505 84.9622C68.7947 84.5617 68.9323 84.1582 69.0667 83.7534C69.5422 82.9237 70.027 82.0999 70.5172 81.2792C73.6086 76.1041 76.7122 70.948 79.6765 65.6792C85.0084 56.203 90.2905 46.5264 96.6119 37.8245C98.4785 35.2549 100.388 32.7246 102.232 30.1339C103.28 28.6597 104.302 27.1608 105.291 25.6352C105.997 24.5443 109.069 20.7418 107.957 18.4572C107.388 17.2883 100.708 10.7708 97.9265 8.98081Z" fill="#2C2C2C"/>
<path fill-rule="evenodd" clip-rule="evenodd" d="M93.8125 6.49883C94.8553 6.87662 94.348 4.53728 93.3379 3.71406C88.6583 -0.0997309 70.7678 -1.48368 55.1991 2.00023C44.7696 4.33413 32.6397 10.1431 24.3093 17.6109C16.7997 24.3432 11.6351 35.1354 8.97617 45.5625C6.18435 56.5112 5.76151 67.9255 7.31691 79.1528C7.65862 81.619 8.39287 83.9692 8.80197 86.383C9.26268 89.1013 9.499 91.7185 10.3203 94.3631C10.8232 95.9822 11.6779 97.5695 12.107 99.1978C12.5968 101.056 12.2983 102.775 11.941 104.665C11.3589 107.745 10.6371 110.819 9.61132 113.761C8.07093 118.178 6.20167 122.316 5.0297 126.9C3.47031 133 -3.05267 152.849 1.71432 158.259H92.4594C90.1744 151.54 83.3154 143.632 81.9269 136.44C81.1091 132.203 80.72 122.949 80.6344 122.613C78.5894 107.417 74.5965 100.161 72.0957 97.527C69.5949 94.8935 66.264 94.0836 66.0924 91.7992C65.383 82.3512 68.8683 73.2985 71.4239 64.4808C74.4697 53.9715 76.7019 43.2015 79.842 32.7279C81.2324 28.09 88.3977 4.53728 93.8125 6.49883Z" fill="#8991DC"/>
<path fill-rule="evenodd" clip-rule="evenodd" d="M61.9962 17.3681C58.5742 29.0725 57.8382 35.3202 58.5742 51.3126H56.8956C53.7597 36.2206 56.5507 22.0131 59.8863 17.3681H61.9962ZM16.0879 47.5741C22.4647 64.2541 25.3722 74.1039 43.1797 87.6016L41.8046 88.6395C24.1269 77.8396 18.979 64.957 14.7466 48.269L16.0879 47.5741ZM42.2888 30.5999C45.1852 54.2754 46.0307 67.7989 61.1191 93.6967L59.5138 94.2258C43.9853 71.6767 41.5238 53.2724 40.7901 30.7299L42.2888 30.5999ZM25.6218 100.928L26.9952 99.128C45.7365 105.456 43.6489 118.52 67.2537 131.751L65.2811 133.039C44.6121 123.844 39.7804 104.122 25.6218 100.928Z" fill="black" fill-opacity="0.2"/>
</svg>
